<svg width="31" height="31" viewBox="0 0 31 31" fill="none" xmlns="http://www.w3.org/2000/svg">
<path d="M15.6667 25.5154C12.236 25.5154 8.82059 25.5154 5.38982 25.5154C4.6052 25.5154 4.0052 24.9154 3.97443 24.1308C3.95905 23.3 4.5129 22.6538 5.32828 22.6538C8.34366 22.6385 11.3744 22.6231 14.3898 22.6231C18.236 22.6231 22.0667 22.6385 25.9129 22.6231C26.5744 22.6231 27.2514 23.2077 27.3437 23.7462C27.4821 24.5308 27.0821 25.2538 26.3744 25.4846C26.2975 25.5154 26.2052 25.5154 26.1283 25.5154C22.636 25.5154 19.1437 25.5154 15.6667 25.5154Z" fill="#0CB3E0"/>
<path d="M25.8206 18.8385C25.2668 14.4539 21.9283 10.9 17.5898 10.0692C17.5283 10.0539 17.4514 10.0385 17.3898 10.0231C17.2514 9.99231 17.1591 9.86924 17.1591 9.73078V8.42308C17.2975 8.39231 17.4206 8.36155 17.5437 8.33078C18.2052 8.14616 18.6668 7.46924 18.5898 6.79231C18.5283 6.14616 17.9437 5.50001 17.3591 5.48462C16.2822 5.46924 15.2052 5.46924 14.1283 5.48462C13.4206 5.50001 12.8514 6.05385 12.7745 6.74616C12.6975 7.46924 13.1283 8.11539 13.8052 8.31539C13.9283 8.34616 14.0514 8.37693 14.2052 8.4077C14.2052 8.88462 14.2206 9.33078 14.1898 9.79231C14.1898 9.86924 14.0514 9.97693 13.9591 9.99231C10.5745 10.6385 8.08216 12.4846 6.49754 15.5308C5.74369 16.9769 5.40523 18.5462 5.436 20.1923C5.45139 20.9 6.06677 21.5462 6.71292 21.5462H24.5129C25.2206 21.5462 25.8514 20.9462 25.8668 20.2385C25.8975 19.7923 25.8822 19.3154 25.8206 18.8385ZM22.0822 19.4539C22.0668 19.4539 22.036 19.4539 22.0206 19.4539C21.7591 19.4539 21.5283 19.2539 21.4822 18.9769C21.0514 15.4692 18.1591 14.0692 18.036 14.0077C17.7745 13.8846 17.6514 13.5615 17.7745 13.3C17.8975 13.0385 18.2206 12.9154 18.4822 13.0385C18.6206 13.1 22.036 14.7308 22.5437 18.8385C22.5898 19.1462 22.3745 19.4077 22.0822 19.4539Z" fill="#0CB3E0"/>
</svg>
