<svg width="22" height="28" viewBox="0 0 22 28" fill="none" xmlns="http://www.w3.org/2000/svg">
<g clip-path="url(#clip0_435_545)">
<path d="M7.23027 22.8421C8.1459 22.8421 8.88816 22.0999 8.88816 21.1842C8.88816 20.2686 8.1459 19.5263 7.23027 19.5263C6.31464 19.5263 5.57237 20.2686 5.57237 21.1842C5.57237 22.0999 6.31464 22.8421 7.23027 22.8421Z" fill="#8D99AE"/>
<path d="M17.1776 22.8421C18.0932 22.8421 18.8355 22.0999 18.8355 21.1842C18.8355 20.2686 18.0932 19.5263 17.1776 19.5263C16.262 19.5263 15.5197 20.2686 15.5197 21.1842C15.5197 22.0999 16.262 22.8421 17.1776 22.8421Z" fill="#8D99AE"/>
<path d="M2.25658 6.26317H4.46711L5.13027 9.57896M5.13027 9.57896L6.67764 17.3158H17.7303L19.9408 9.57896H5.13027Z" stroke="#8D99AE" stroke-width="1.57" stroke-linecap="round" stroke-linejoin="round"/>
</g>
<defs>
<clipPath id="clip0_435_545">
<rect width="21" height="17.6842" fill="white" transform="translate(0.875 5.15789)"/>
</clipPath>
</defs>
</svg>
