<svg width="30" height="30" viewBox="0 0 30 30" fill="none" xmlns="http://www.w3.org/2000/svg">
<g clip-path="url(#clip0_406_1027)">
<path d="M29.25 15C29.25 16.216 28.7877 17.432 27.8598 18.3598C27.4133 18.8063 27.065 19.3288 26.8275 19.8988C26.59 20.4688 26.4665 21.0863 26.4665 21.7165C26.4665 23.0306 25.9345 24.215 25.0763 25.0764C24.215 25.9345 23.0307 26.4665 21.7165 26.4665C21.0863 26.4665 20.4688 26.59 19.8988 26.8275C19.3288 27.065 18.8063 27.4133 18.3598 27.8598C17.4922 28.7275 16.3743 29.1867 15.2407 29.2437C15.1615 29.2468 15.0792 29.25 15 29.25C13.784 29.25 12.568 28.7877 11.6402 27.8598C11.1937 27.4133 10.6712 27.065 10.1012 26.8275C9.53118 26.59 8.91368 26.4665 8.28351 26.4665C6.96934 26.4665 5.78501 25.9345 4.92366 25.0764C4.06551 24.215 3.53351 23.0306 3.53351 21.7165C3.53351 21.0863 3.41001 20.4688 3.17251 19.8988C2.93501 19.3288 2.58666 18.8063 2.14017 18.3598C1.21234 17.432 0.75 16.216 0.75 15C0.75 13.784 1.21234 12.568 2.14017 11.6402C2.58666 11.1937 2.93501 10.6712 3.17251 10.1012C3.41001 9.53116 3.53351 8.91368 3.53351 8.28351C3.53351 6.96938 4.06551 5.78497 4.92366 4.92365C5.78501 4.06549 6.96934 3.53351 8.28351 3.53351C8.91368 3.53351 9.53118 3.40997 10.1012 3.17247C10.6712 2.93497 11.1937 2.58668 11.6402 2.14021C12.568 1.21232 13.784 0.75 15 0.75C15.0792 0.75 15.1615 0.75317 15.2407 0.75634C16.3743 0.813318 17.4922 1.27247 18.3598 2.14021C19.2497 3.03315 20.4562 3.53351 21.7165 3.53351C23.0307 3.53351 24.215 4.06549 25.0763 4.92365C25.9345 5.78497 26.4665 6.96938 26.4665 8.28351C26.4665 8.91368 26.59 9.53116 26.8275 10.1012C27.065 10.6712 27.4133 11.1937 27.8598 11.6402C28.7877 12.568 29.25 13.784 29.25 15Z" fill="#25D375"/>
<path d="M12.5843 20.3181C12.2904 20.3181 12.0085 20.2014 11.8005 19.9935L8.21253 16.4055C7.77974 15.9726 7.77974 15.2709 8.21253 14.838C8.64547 14.4053 9.34715 14.4053 9.78009 14.838L12.5843 17.6424L20.2199 10.0065C20.6528 9.57385 21.3545 9.57385 21.7874 10.0065C22.2202 10.4394 22.2202 11.1411 21.7874 11.5739L13.3681 19.9935C13.1601 20.2014 12.8783 20.3181 12.5843 20.3181Z" fill="#1B202A" stroke="#1B202A"/>
<path opacity="0.25" d="M29.2501 15C29.2501 16.216 28.7877 17.432 27.8599 18.3598C27.4134 18.8063 27.0651 19.3288 26.8276 19.8988C26.5901 20.4688 26.4666 21.0863 26.4666 21.7165C26.4666 23.0306 25.9346 24.215 25.0764 25.0764C24.2151 25.9345 23.0307 26.4665 21.7166 26.4665C21.0864 26.4665 20.4689 26.59 19.8989 26.8275C19.3289 27.065 18.8064 27.4133 18.3599 27.8598C17.4922 28.7275 16.3744 29.1867 15.2407 29.2437V0.756348C16.3744 0.813326 17.4922 1.27248 18.3599 2.14022C19.2497 3.03316 20.4562 3.53352 21.7166 3.53352C23.0307 3.53352 24.2151 4.0655 25.0764 4.92365C25.9346 5.78498 26.4666 6.96938 26.4666 8.28352C26.4666 8.91368 26.5901 9.53117 26.8276 10.1012C27.0651 10.6712 27.4134 11.1937 27.8599 11.6402C28.7877 12.568 29.2501 13.784 29.2501 15Z" fill="white"/>
</g>
<defs>
<clipPath id="clip0_406_1027">
<rect width="30" height="30" fill="white"/>
</clipPath>
</defs>
</svg>
