<svg width="23" height="28" viewBox="0 0 23 28" fill="none" xmlns="http://www.w3.org/2000/svg">
<path d="M11.625 8.09084L11.1341 8.56357C11.1977 8.62956 11.274 8.68204 11.3583 8.71789C11.4427 8.75375 11.5334 8.77222 11.625 8.77222C11.7167 8.77222 11.8074 8.75375 11.8917 8.71789C11.9761 8.68204 12.0523 8.62956 12.1159 8.56357L11.625 8.09084ZM7.08048 18.0181C6.94063 17.9031 6.76083 17.8484 6.58063 17.8659C6.40042 17.8835 6.23458 17.9719 6.11957 18.1118C6.00456 18.2516 5.94981 18.4314 5.96737 18.6116C5.98493 18.7918 6.07336 18.9577 6.2132 19.0727L7.08048 18.0181ZM2.84502 15.2827C2.888 15.3612 2.94603 15.4305 3.0158 15.4867C3.08557 15.5428 3.16571 15.5846 3.25164 15.6098C3.33758 15.6349 3.42763 15.6429 3.51665 15.6333C3.60567 15.6236 3.69192 15.5965 3.77048 15.5536C3.84903 15.5106 3.91835 15.4526 3.97448 15.3828C4.03061 15.313 4.07244 15.2329 4.0976 15.1469C4.12276 15.061 4.13074 14.971 4.12109 14.8819C4.11145 14.7929 4.08436 14.7067 4.04139 14.6281L2.84502 15.2827ZM3.21593 11.3972C3.21593 9.44266 4.32048 7.80266 5.82866 7.11266C7.29411 6.44266 9.2632 6.61993 11.1341 8.56357L12.1159 7.61902C9.89775 5.31266 7.31957 4.93175 5.26139 5.87266C3.24866 6.79357 1.85229 8.93175 1.85229 11.3972H3.21593ZM8.44048 20.8181C8.90684 21.1854 9.40684 21.5763 9.9132 21.8727C10.4196 22.1681 10.9977 22.409 11.625 22.409V21.0454C11.3432 21.0454 11.0123 20.9363 10.6014 20.6954C10.1896 20.4554 9.7632 20.1245 9.28502 19.7472L8.44048 20.8181ZM14.8096 20.8181C16.1059 19.7954 17.7641 18.6245 19.0641 17.1599C20.3887 15.669 21.3977 13.8208 21.3977 11.3972H20.0341C20.0341 13.3954 19.2159 14.9345 18.045 16.2545C16.8496 17.5999 15.3432 18.6608 13.965 19.7472L14.8096 20.8181ZM21.3977 11.3972C21.3977 8.93175 20.0023 6.79357 17.9887 5.87266C15.9305 4.93175 13.3541 5.31266 11.1341 7.61811L12.1159 8.56357C13.9868 6.62084 15.9559 6.44266 17.4214 7.11266C18.9296 7.80266 20.0341 9.44175 20.0341 11.3972H21.3977ZM13.965 19.7472C13.4868 20.1245 13.0605 20.4554 12.6487 20.6954C12.2378 20.9354 11.9068 21.0454 11.625 21.0454V22.409C12.2523 22.409 12.8305 22.1681 13.3368 21.8727C13.8441 21.5763 14.3432 21.1854 14.8096 20.8181L13.965 19.7472ZM9.28502 19.7472C8.56139 19.1772 7.82593 18.6318 7.08048 18.0181L6.2132 19.0727C6.96775 19.6936 7.76593 20.2863 8.44048 20.8181L9.28502 19.7472ZM4.04139 14.629C3.49376 13.6403 3.20951 12.5274 3.21593 11.3972H1.85229C1.85229 12.8863 2.23411 14.1654 2.84502 15.2827L4.04139 14.629Z" fill="#8D99AE"/>
<path d="M8.8632 20.2818L9.28502 19.7472M9.28502 19.7472C9.7632 20.1245 10.1896 20.4554 10.6014 20.6954C11.0123 20.9363 11.3432 21.0454 11.625 21.0454M9.28502 19.7472L8.44048 20.8181M9.28502 19.7472C8.56139 19.1772 7.82593 18.6318 7.08048 18.0181M11.1341 8.56357L11.625 8.09084L12.1159 8.56357M11.1341 8.56357C11.1977 8.62956 11.274 8.68204 11.3583 8.71789C11.4427 8.75375 11.5334 8.77222 11.625 8.77222C11.7167 8.77222 11.8074 8.75375 11.8917 8.71789C11.9761 8.68204 12.0523 8.62956 12.1159 8.56357M11.1341 8.56357C9.2632 6.61993 7.29411 6.44266 5.82866 7.11266C4.32048 7.80266 3.21593 9.44266 3.21593 11.3972M11.1341 8.56357L12.1159 7.61902C9.89775 5.31266 7.31957 4.93175 5.26139 5.87266C3.24866 6.79357 1.85229 8.93175 1.85229 11.3972M12.1159 8.56357L11.1341 7.61811C13.3541 5.31266 15.9305 4.93175 17.9887 5.87266C20.0023 6.79357 21.3977 8.93175 21.3977 11.3972M12.1159 8.56357C13.9868 6.62084 15.9559 6.44266 17.4214 7.11266C18.9296 7.80266 20.0341 9.44175 20.0341 11.3972M14.3868 20.2818L14.8096 20.8181M14.8096 20.8181C16.1059 19.7954 17.7641 18.6245 19.0641 17.1599C20.3887 15.669 21.3977 13.8208 21.3977 11.3972M14.8096 20.8181L13.965 19.7472M14.8096 20.8181C14.3432 21.1854 13.8441 21.5763 13.3368 21.8727C12.8305 22.1681 12.2523 22.409 11.625 22.409M7.08048 18.0181C6.94063 17.9031 6.76083 17.8484 6.58063 17.8659C6.40042 17.8835 6.23458 17.9719 6.11957 18.1118C6.00456 18.2516 5.94981 18.4314 5.96737 18.6116C5.98494 18.7918 6.07336 18.9577 6.2132 19.0727M7.08048 18.0181L6.2132 19.0727M6.2132 19.0727C6.96775 19.6936 7.76593 20.2863 8.44048 20.8181M2.84502 15.2827C2.888 15.3612 2.94603 15.4305 3.0158 15.4867C3.08557 15.5428 3.16571 15.5846 3.25164 15.6098C3.33758 15.6349 3.42763 15.6429 3.51665 15.6333C3.60567 15.6236 3.69192 15.5965 3.77048 15.5536C3.84903 15.5106 3.91835 15.4526 3.97448 15.3828C4.03061 15.313 4.07244 15.2329 4.0976 15.1469C4.12276 15.061 4.13074 14.971 4.12109 14.8819C4.11145 14.7929 4.08436 14.7067 4.04139 14.6281L2.84502 15.2827ZM2.84502 15.2827C2.23411 14.1654 1.85229 12.8863 1.85229 11.3972M2.84502 15.2827L4.04139 14.629C3.49376 13.6403 3.20951 12.5274 3.21593 11.3972M3.21593 11.3972H1.85229M8.44048 20.8181C8.90684 21.1854 9.40684 21.5763 9.9132 21.8727C10.4196 22.1681 10.9977 22.409 11.625 22.409M11.625 22.409V21.0454M11.625 21.0454C11.9068 21.0454 12.2377 20.9354 12.6487 20.6954C13.0605 20.4554 13.4868 20.1245 13.965 19.7472M21.3977 11.3972H20.0341M20.0341 11.3972C20.0341 13.3954 19.2159 14.9345 18.045 16.2545C16.8496 17.5999 15.3432 18.6608 13.965 19.7472" stroke="#8D99AE" stroke-width="0.3"/>
</svg>
