<svg width="23" height="28" viewBox="0 0 23 28" fill="none" xmlns="http://www.w3.org/2000/svg">
<path d="M11.625 8.09088L11.1341 8.5636C11.1977 8.62959 11.2739 8.68208 11.3583 8.71793C11.4426 8.75378 11.5333 8.77226 11.625 8.77226C11.7166 8.77226 11.8074 8.75378 11.8917 8.71793C11.9761 8.68208 12.0523 8.62959 12.1159 8.5636L11.625 8.09088ZM7.08045 18.0181C6.94061 17.9031 6.76081 17.8484 6.58061 17.866C6.4004 17.8835 6.23455 17.9719 6.11954 18.1118C6.00454 18.2516 5.94979 18.4314 5.96735 18.6116C5.98491 18.7918 6.07334 18.9577 6.21318 19.0727L7.08045 18.0181ZM2.845 15.2827C2.88798 15.3612 2.94601 15.4306 3.01578 15.4867C3.08554 15.5428 3.16568 15.5847 3.25162 15.6098C3.33756 15.635 3.42761 15.643 3.51663 15.6333C3.60565 15.6237 3.6919 15.5966 3.77045 15.5536C3.84901 15.5106 3.91833 15.4526 3.97446 15.3828C4.03058 15.3131 4.07242 15.2329 4.09758 15.147C4.12273 15.061 4.13072 14.971 4.12107 14.882C4.11143 14.793 4.08434 14.7067 4.04136 14.6281L2.845 15.2827ZM3.21591 11.3972C3.21591 9.44269 4.32045 7.80269 5.82864 7.11269C7.29409 6.44269 9.26318 6.61997 11.1341 8.5636L12.1159 7.61906C9.89773 5.31269 7.31954 4.93178 5.26136 5.87269C3.24864 6.7936 1.85227 8.93178 1.85227 11.3972H3.21591ZM8.44045 20.8181C8.90682 21.1854 9.40682 21.5763 9.91318 21.8727C10.4195 22.1681 10.9977 22.4091 11.625 22.4091V21.0454C11.3432 21.0454 11.0123 20.9363 10.6014 20.6954C10.1895 20.4554 9.76318 20.1245 9.285 19.7472L8.44045 20.8181ZM14.8095 20.8181C16.1059 19.7954 17.7641 18.6245 19.0641 17.16C20.3886 15.6691 21.3977 13.8209 21.3977 11.3972H20.0341C20.0341 13.3954 19.2159 14.9345 18.045 16.2545C16.8495 17.6 15.3432 18.6609 13.965 19.7472L14.8095 20.8181ZM21.3977 11.3972C21.3977 8.93178 20.0023 6.7936 17.9886 5.87269C15.9305 4.93178 13.3541 5.31269 11.1341 7.61815L12.1159 8.5636C13.9868 6.62088 15.9559 6.44269 17.4214 7.11269C18.9295 7.80269 20.0341 9.44178 20.0341 11.3972H21.3977ZM13.965 19.7472C13.4868 20.1245 13.0605 20.4554 12.6486 20.6954C12.2377 20.9354 11.9068 21.0454 11.625 21.0454V22.4091C12.2523 22.4091 12.8305 22.1681 13.3368 21.8727C13.8441 21.5763 14.3432 21.1854 14.8095 20.8181L13.965 19.7472ZM9.285 19.7472C8.56136 19.1772 7.82591 18.6318 7.08045 18.0181L6.21318 19.0727C6.96773 19.6936 7.76591 20.2863 8.44045 20.8181L9.285 19.7472ZM4.04136 14.6291C3.49373 13.6404 3.20948 12.5275 3.21591 11.3972H1.85227C1.85227 12.8863 2.23409 14.1654 2.845 15.2827L4.04136 14.6291Z" fill="#0CB3E0"/>
<path d="M8.86318 20.2818L9.285 19.7472M9.285 19.7472C9.76318 20.1245 10.1895 20.4554 10.6014 20.6954C11.0123 20.9363 11.3432 21.0454 11.625 21.0454M9.285 19.7472L8.44045 20.8181M9.285 19.7472C8.56136 19.1772 7.82591 18.6318 7.08045 18.0181M11.1341 8.5636L11.625 8.09088L12.1159 8.5636M11.1341 8.5636C11.1977 8.62959 11.2739 8.68208 11.3583 8.71793C11.4426 8.75378 11.5333 8.77226 11.625 8.77226C11.7166 8.77226 11.8074 8.75378 11.8917 8.71793C11.9761 8.68208 12.0523 8.62959 12.1159 8.5636M11.1341 8.5636C9.26318 6.61997 7.29409 6.44269 5.82864 7.11269C4.32045 7.80269 3.21591 9.44269 3.21591 11.3972M11.1341 8.5636L12.1159 7.61906C9.89773 5.31269 7.31954 4.93178 5.26136 5.87269C3.24864 6.7936 1.85227 8.93178 1.85227 11.3972M12.1159 8.5636L11.1341 7.61815C13.3541 5.31269 15.9305 4.93178 17.9886 5.87269C20.0023 6.7936 21.3977 8.93178 21.3977 11.3972M12.1159 8.5636C13.9868 6.62088 15.9559 6.44269 17.4214 7.11269C18.9295 7.80269 20.0341 9.44178 20.0341 11.3972M14.3868 20.2818L14.8095 20.8181M14.8095 20.8181C16.1059 19.7954 17.7641 18.6245 19.0641 17.16C20.3886 15.6691 21.3977 13.8209 21.3977 11.3972M14.8095 20.8181L13.965 19.7472M14.8095 20.8181C14.3432 21.1854 13.8441 21.5763 13.3368 21.8727C12.8305 22.1681 12.2523 22.4091 11.625 22.4091M7.08045 18.0181C6.94061 17.9031 6.76081 17.8484 6.58061 17.866C6.4004 17.8835 6.23455 17.9719 6.11954 18.1118C6.00454 18.2516 5.94979 18.4314 5.96735 18.6116C5.98491 18.7918 6.07334 18.9577 6.21318 19.0727M7.08045 18.0181L6.21318 19.0727M6.21318 19.0727C6.96773 19.6936 7.76591 20.2863 8.44045 20.8181M2.845 15.2827C2.88798 15.3612 2.94601 15.4306 3.01578 15.4867C3.08554 15.5428 3.16568 15.5847 3.25162 15.6098C3.33756 15.635 3.42761 15.643 3.51663 15.6333C3.60565 15.6237 3.6919 15.5966 3.77045 15.5536C3.84901 15.5106 3.91833 15.4526 3.97446 15.3828C4.03058 15.3131 4.07242 15.2329 4.09758 15.147C4.12273 15.061 4.13072 14.971 4.12107 14.882C4.11143 14.793 4.08434 14.7067 4.04136 14.6281L2.845 15.2827ZM2.845 15.2827C2.23409 14.1654 1.85227 12.8863 1.85227 11.3972M2.845 15.2827L4.04136 14.6291C3.49373 13.6404 3.20948 12.5275 3.21591 11.3972M3.21591 11.3972H1.85227M8.44045 20.8181C8.90682 21.1854 9.40682 21.5763 9.91318 21.8727C10.4195 22.1681 10.9977 22.4091 11.625 22.4091M11.625 22.4091V21.0454M11.625 21.0454C11.9068 21.0454 12.2377 20.9354 12.6486 20.6954C13.0605 20.4554 13.4868 20.1245 13.965 19.7472M21.3977 11.3972H20.0341M20.0341 11.3972C20.0341 13.3954 19.2159 14.9345 18.045 16.2545C16.8495 17.6 15.3432 18.6609 13.965 19.7472" stroke="#0CB3E0" stroke-width="0.3"/>
</svg>
