<svg width="20" height="18" viewBox="0 0 20 18" fill="none" xmlns="http://www.w3.org/2000/svg">
<path d="M9.46143 17.6662C9.642 17.7655 9.84526 17.8162 10.0513 17.8135C10.2574 17.8107 10.4592 17.7545 10.6371 17.6504C13.1011 16.243 17.3814 13.0022 19.0624 8.7926C21.5305 3.31117 15.7362 -1.06408 11.7322 2.0826C11.3142 2.41123 10.789 2.78729 10.4281 3.14273C10.2644 3.3036 9.97637 3.32011 9.80656 3.16611C9.33218 2.73298 8.58899 2.17885 8.11187 1.85642C4.69843 -0.453583 -1.51313 2.59135 1.13649 9.08892C2.10724 12.0053 6.73274 16.1427 9.46143 17.6662Z" fill="url(#paint0_radial_26_289)"/>
<path d="M9.46143 17.6662C9.642 17.7655 9.84526 17.8162 10.0513 17.8135C10.2574 17.8107 10.4592 17.7545 10.6371 17.6504C13.1011 16.243 17.3814 13.0022 19.0624 8.7926C21.5305 3.31117 15.7362 -1.06408 11.7322 2.0826C11.3142 2.41123 10.789 2.78729 10.4281 3.14273C10.2644 3.3036 9.97637 3.32011 9.80656 3.16611C9.33218 2.73298 8.58899 2.17885 8.11187 1.85642C4.69843 -0.453583 -1.51313 2.59135 1.13649 9.08892C2.10724 12.0053 6.73274 16.1427 9.46143 17.6662Z" fill="url(#paint1_radial_26_289)"/>
<path d="M9.46143 17.6662C9.642 17.7655 9.84526 17.8162 10.0513 17.8135C10.2574 17.8107 10.4592 17.7545 10.6371 17.6504C13.1011 16.243 17.3814 13.0022 19.0624 8.7926C21.5305 3.31117 15.7362 -1.06408 11.7322 2.0826C11.3142 2.41123 10.789 2.78729 10.4281 3.14273C10.2644 3.3036 9.97637 3.32011 9.80656 3.16611C9.33218 2.73298 8.58899 2.17885 8.11187 1.85642C4.69843 -0.453583 -1.51313 2.59135 1.13649 9.08892C2.10724 12.0053 6.73274 16.1427 9.46143 17.6662Z" fill="url(#paint2_radial_26_289)"/>
<path d="M9.46143 17.6662C9.642 17.7655 9.84526 17.8162 10.0513 17.8135C10.2574 17.8107 10.4592 17.7545 10.6371 17.6504C13.1011 16.243 17.3814 13.0022 19.0624 8.7926C21.5305 3.31117 15.7362 -1.06408 11.7322 2.0826C11.3142 2.41123 10.789 2.78729 10.4281 3.14273C10.2644 3.3036 9.97637 3.32011 9.80656 3.16611C9.33218 2.73298 8.58899 2.17885 8.11187 1.85642C4.69843 -0.453583 -1.51313 2.59135 1.13649 9.08892C2.10724 12.0053 6.73274 16.1427 9.46143 17.6662Z" fill="url(#paint3_radial_26_289)"/>
<path d="M9.46143 17.6662C9.642 17.7655 9.84526 17.8162 10.0513 17.8135C10.2574 17.8107 10.4592 17.7545 10.6371 17.6504C13.1011 16.243 17.3814 13.0022 19.0624 8.7926C21.5305 3.31117 15.7362 -1.06408 11.7322 2.0826C11.3142 2.41123 10.789 2.78729 10.4281 3.14273C10.2644 3.3036 9.97637 3.32011 9.80656 3.16611C9.33218 2.73298 8.58899 2.17885 8.11187 1.85642C4.69843 -0.453583 -1.51313 2.59135 1.13649 9.08892C2.10724 12.0053 6.73274 16.1427 9.46143 17.6662Z" fill="url(#paint4_linear_26_289)"/>
<path d="M9.46143 17.6662C9.642 17.7655 9.84526 17.8162 10.0513 17.8135C10.2574 17.8107 10.4592 17.7545 10.6371 17.6504C13.1011 16.243 17.3814 13.0022 19.0624 8.7926C21.5305 3.31117 15.7362 -1.06408 11.7322 2.0826C11.3142 2.41123 10.789 2.78729 10.4281 3.14273C10.2644 3.3036 9.97637 3.32011 9.80656 3.16611C9.33218 2.73298 8.58899 2.17885 8.11187 1.85642C4.69843 -0.453583 -1.51313 2.59135 1.13649 9.08892C2.10724 12.0053 6.73274 16.1427 9.46143 17.6662Z" fill="url(#paint5_linear_26_289)"/>
<path d="M9.46143 17.6662C9.642 17.7655 9.84526 17.8162 10.0513 17.8135C10.2574 17.8107 10.4592 17.7545 10.6371 17.6504C13.1011 16.243 17.3814 13.0022 19.0624 8.7926C21.5305 3.31117 15.7362 -1.06408 11.7322 2.0826C11.3142 2.41123 10.789 2.78729 10.4281 3.14273C10.2644 3.3036 9.97637 3.32011 9.80656 3.16611C9.33218 2.73298 8.58899 2.17885 8.11187 1.85642C4.69843 -0.453583 -1.51313 2.59135 1.13649 9.08892C2.10724 12.0053 6.73274 16.1427 9.46143 17.6662Z" fill="url(#paint6_radial_26_289)" fill-opacity="0.6"/>
<g filter="url(#filter0_f_26_289)">
<path d="M9.9364 4.83602V9.52683C9.9364 10.149 10.6899 10.444 11.0777 9.95789C12.2773 8.45227 13.2453 6.62283 12.1653 5.12821C11.7514 4.55483 10.958 4.18771 10.3097 4.30458C10.0677 4.34789 9.9364 4.58989 9.9364 4.83671" fill="#FA1C56"/>
</g>
<g filter="url(#filter1_f_26_289)">
<path d="M17.7281 7.23554C18.9429 6.05461 19.1338 4.28067 18.1546 3.27333C17.1753 2.26599 15.3967 2.40671 14.1819 3.58763C12.9671 4.76856 12.7761 6.5425 13.7554 7.54984C14.7346 8.55718 16.5133 8.41646 17.7281 7.23554Z" fill="url(#paint7_radial_26_289)"/>
</g>
<g filter="url(#filter2_f_26_289)">
<path d="M15.0976 2.00378C15.7354 2.08395 16.2661 2.04023 16.283 1.90611C16.2998 1.772 15.7964 1.59828 15.1586 1.5181C14.5208 1.43792 13.9901 1.48165 13.9733 1.61576C13.9564 1.74988 14.4598 1.9236 15.0976 2.00378Z" fill="#FF7383"/>
</g>
<g filter="url(#filter3_f_26_289)">
<path d="M5.4566 1.92236C6.03332 1.91534 6.49991 1.83302 6.49876 1.73848C6.49761 1.64394 6.02915 1.57299 5.45244 1.58001C4.87572 1.58702 4.40914 1.66935 4.41029 1.76389C4.41144 1.85842 4.87989 1.92937 5.4566 1.92236Z" fill="#FF93BA" fill-opacity="0.5"/>
</g>
<g filter="url(#filter4_f_26_289)">
<path d="M9.20552 4.43872L9.42071 11.4856C4.69415 6.88759 3.78459 3.65909 5.59615 2.93447C7.3149 2.24697 8.6899 3.36416 9.20552 4.43872Z" fill="url(#paint8_radial_26_289)"/>
</g>
<g filter="url(#filter5_f_26_289)">
<path d="M8.86218 4.02616C8.28468 3.94366 8.10593 3.46447 8.08875 3.23553C8.41875 3.57928 8.74187 3.60816 8.86218 3.57928V4.02616Z" fill="#FF7383"/>
</g>
<defs>
<filter id="filter0_f_26_289" x="8.5614" y="2.9079" width="5.44711" height="8.66782" filterUnits="userSpaceOnUse" color-interpolation-filters="sRGB">
<feFlood flood-opacity="0" result="BackgroundImageFix"/>
<feBlend mode="normal" in="SourceGraphic" in2="BackgroundImageFix" result="shape"/>
<feGaussianBlur stdDeviation="0.6875" result="effect1_foregroundBlur_26_289"/>
</filter>
<filter id="filter1_f_26_289" x="12.0984" y="1.56976" width="7.7132" height="7.68362" filterUnits="userSpaceOnUse" color-interpolation-filters="sRGB">
<feFlood flood-opacity="0" result="BackgroundImageFix"/>
<feBlend mode="normal" in="SourceGraphic" in2="BackgroundImageFix" result="shape"/>
<feGaussianBlur stdDeviation="0.515625" result="effect1_foregroundBlur_26_289"/>
</filter>
<filter id="filter2_f_26_289" x="12.5978" y="0.102966" width="5.06052" height="3.31595" filterUnits="userSpaceOnUse" color-interpolation-filters="sRGB">
<feFlood flood-opacity="0" result="BackgroundImageFix"/>
<feBlend mode="normal" in="SourceGraphic" in2="BackgroundImageFix" result="shape"/>
<feGaussianBlur stdDeviation="0.6875" result="effect1_foregroundBlur_26_289"/>
</filter>
<filter id="filter3_f_26_289" x="3.37903" y="0.548279" width="4.15097" height="2.40582" filterUnits="userSpaceOnUse" color-interpolation-filters="sRGB">
<feFlood flood-opacity="0" result="BackgroundImageFix"/>
<feBlend mode="normal" in="SourceGraphic" in2="BackgroundImageFix" result="shape"/>
<feGaussianBlur stdDeviation="0.515625" result="effect1_foregroundBlur_26_289"/>
</filter>
<filter id="filter4_f_26_289" x="2.66595" y="0.660431" width="8.81726" height="12.8877" filterUnits="userSpaceOnUse" color-interpolation-filters="sRGB">
<feFlood flood-opacity="0" result="BackgroundImageFix"/>
<feBlend mode="normal" in="SourceGraphic" in2="BackgroundImageFix" result="shape"/>
<feGaussianBlur stdDeviation="1.03125" result="effect1_foregroundBlur_26_289"/>
</filter>
<filter id="filter5_f_26_289" x="7.40125" y="2.54803" width="2.14844" height="2.16562" filterUnits="userSpaceOnUse" color-interpolation-filters="sRGB">
<feFlood flood-opacity="0" result="BackgroundImageFix"/>
<feBlend mode="normal" in="SourceGraphic" in2="BackgroundImageFix" result="shape"/>
<feGaussianBlur stdDeviation="0.34375" result="effect1_foregroundBlur_26_289"/>
</filter>
<radialGradient id="paint0_radial_26_289" cx="0" cy="0" r="1" gradientUnits="userSpaceOnUse" gradientTransform="translate(9.91931 1.46317) rotate(90) scale(15.8018 16.7764)">
<stop stop-color="#FC0000"/>
<stop offset="0.528" stop-color="#FF3B79"/>
<stop offset="1" stop-color="#F724B3"/>
</radialGradient>
<radialGradient id="paint1_radial_26_289" cx="0" cy="0" r="1" gradientUnits="userSpaceOnUse" gradientTransform="translate(14.8294 5.40185) rotate(134.402) scale(14.6195 27.3837)">
<stop offset="0.798" stop-color="#C82092" stop-opacity="0"/>
<stop offset="0.908" stop-color="#C82092"/>
</radialGradient>
<radialGradient id="paint2_radial_26_289" cx="0" cy="0" r="1" gradientUnits="userSpaceOnUse" gradientTransform="translate(12.7477 9.81973) rotate(-158.663) scale(15.6399 22.1093)">
<stop offset="0.41" stop-color="#B91D43" stop-opacity="0"/>
<stop offset="0.834" stop-color="#B91D43"/>
</radialGradient>
<radialGradient id="paint3_radial_26_289" cx="0" cy="0" r="1" gradientUnits="userSpaceOnUse" gradientTransform="translate(9.69724 7.08829) rotate(90) scale(13.6119)">
<stop offset="0.671" stop-color="#FF7AF2" stop-opacity="0"/>
<stop offset="0.934" stop-color="#FFBCE6"/>
</radialGradient>
<linearGradient id="paint4_linear_26_289" x1="11.1994" y1="8.68123" x2="16.7084" y2="15.2372" gradientUnits="userSpaceOnUse">
<stop offset="0.694" stop-color="#FF7AF2" stop-opacity="0"/>
<stop offset="0.934" stop-color="#FFBCE6"/>
</linearGradient>
<linearGradient id="paint5_linear_26_289" x1="10.5167" y1="8.95417" x2="4.05218" y2="16.2382" gradientUnits="userSpaceOnUse">
<stop offset="0.694" stop-color="#FF7AF2" stop-opacity="0"/>
<stop offset="0.934" stop-color="#FFBCE6"/>
</linearGradient>
<radialGradient id="paint6_radial_26_289" cx="0" cy="0" r="1" gradientUnits="userSpaceOnUse" gradientTransform="translate(11.6133 6.45579) rotate(164.618) scale(11.835 12.4989)">
<stop offset="0.802" stop-color="#FF73A6" stop-opacity="0"/>
<stop offset="1" stop-color="#FF93BA"/>
</radialGradient>
<radialGradient id="paint7_radial_26_289" cx="0" cy="0" r="1" gradientUnits="userSpaceOnUse" gradientTransform="translate(18.0921 3.21456) rotate(128.737) scale(5.01282 6.66574)">
<stop stop-color="#FF7383"/>
<stop offset="1" stop-color="#FF7383" stop-opacity="0"/>
</radialGradient>
<radialGradient id="paint8_radial_26_289" cx="0" cy="0" r="1" gradientUnits="userSpaceOnUse" gradientTransform="translate(10.2368 7.10484) rotate(-135.591) scale(8.72169 15.4825)">
<stop stop-color="#FF6274"/>
<stop offset="1" stop-color="#FF6274" stop-opacity="0"/>
</radialGradient>
</defs>
</svg>
