<svg width="16" height="28" viewBox="0 0 16 28" fill="none" xmlns="http://www.w3.org/2000/svg">
<g clip-path="url(#clip0_435_367)">
<path d="M13.832 7.71111H12.8555V5.36682C12.8555 4.92943 12.6439 4.51529 12.2895 4.259C11.935 4.00271 11.4754 3.93143 11.06 4.06846L1.48969 7.22494C0.928086 7.41021 0.550781 7.93201 0.550781 8.52334V19.4427V22.6328C0.550781 23.3867 1.1641 24 1.91797 24H13.832C14.5859 24 15.1992 23.3867 15.1992 22.6328V9.0783C15.1992 8.32447 14.5859 7.71111 13.832 7.71111ZM14.0273 22.6328C14.0273 22.7405 13.9397 22.8281 13.832 22.8281H1.91797C1.81027 22.8281 1.72266 22.7405 1.72266 22.6328V18.8568V9.0783C1.72266 8.97061 1.81027 8.88299 1.91797 8.88299H13.832C13.9397 8.88299 14.0273 8.97061 14.0273 9.0783V22.6328ZM11.4271 5.18135C11.5096 5.15416 11.5725 5.18674 11.6028 5.20857C11.633 5.23041 11.6836 5.27998 11.6836 5.36682V7.71115H3.75695L11.4271 5.18135Z" fill="#0CB3E0" stroke="#0CB3E0" stroke-width="0.2"/>
<path d="M3.96875 15.6594H4.67898H11.7812C12.1048 15.6594 12.3672 15.397 12.3672 15.0735C12.3672 14.7499 12.1048 14.4875 11.7812 14.4875H11.6115C11.3589 12.8704 10.078 11.5895 8.46094 11.3369V11.0433C8.46094 10.7197 8.19859 10.4574 7.875 10.4574C7.55141 10.4574 7.28906 10.7197 7.28906 11.0433V11.3369C5.67195 11.5895 4.39105 12.8704 4.13848 14.4875H3.96875C3.64516 14.4875 3.38281 14.7499 3.38281 15.0735C3.38281 15.397 3.64516 15.6594 3.96875 15.6594ZM7.875 12.4634C9.11281 12.4634 10.1521 13.3295 10.4188 14.4875H5.33121C5.59789 13.3295 6.63723 12.4634 7.875 12.4634Z" fill="#0CB3E0"/>
<path d="M4.19598 17.2424C3.87239 17.2424 3.61005 17.5048 3.61005 17.8284C3.61005 18.152 3.87239 18.4143 4.19598 18.4143H7.00848C7.33208 18.4143 7.59442 18.152 7.59442 17.8284C7.59442 17.5048 7.33208 17.2424 7.00848 17.2424H4.19598Z" fill="#0CB3E0"/>
<path d="M11.6348 19.5862H4.11523C3.79164 19.5862 3.5293 19.8485 3.5293 20.1721C3.5293 20.4957 3.79164 20.7581 4.11523 20.7581H11.6348C11.9584 20.7581 12.2207 20.4957 12.2207 20.1721C12.2207 19.8485 11.9584 19.5862 11.6348 19.5862Z" fill="#0CB3E0"/>
</g>
<defs>
<clipPath id="clip0_435_367">
<rect width="15" height="20" fill="white" transform="translate(0.375 4)"/>
</clipPath>
</defs>
</svg>
