<svg width="16" height="28" viewBox="0 0 16 28" fill="none" xmlns="http://www.w3.org/2000/svg">
<g clip-path="url(#clip0_435_528)">
<path d="M13.832 7.71113H12.8555V5.36684C12.8555 4.92945 12.6439 4.51531 12.2895 4.25902C11.935 4.00273 11.4754 3.93144 11.06 4.06848L1.48969 7.22496C0.928086 7.41023 0.550781 7.93203 0.550781 8.52336V19.4427V22.6328C0.550781 23.3867 1.1641 24 1.91797 24H13.832C14.5859 24 15.1992 23.3867 15.1992 22.6328V9.07832C15.1992 8.32449 14.5859 7.71113 13.832 7.71113ZM14.0273 22.6328C14.0273 22.7405 13.9397 22.8281 13.832 22.8281H1.91797C1.81027 22.8281 1.72266 22.7405 1.72266 22.6328V18.8568V9.07832C1.72266 8.97062 1.81027 8.88301 1.91797 8.88301H13.832C13.9397 8.88301 14.0273 8.97062 14.0273 9.07832V22.6328ZM11.4271 5.18137C11.5096 5.15418 11.5725 5.18676 11.6028 5.20859C11.633 5.23043 11.6836 5.28 11.6836 5.36684V7.71117H3.75695L11.4271 5.18137Z" fill="#8D99AE" stroke="#8D99AE" stroke-width="0.2"/>
<path d="M3.96875 15.6594H4.67898H11.7812C12.1048 15.6594 12.3672 15.3971 12.3672 15.0735C12.3672 14.7499 12.1048 14.4875 11.7812 14.4875H11.6115C11.3589 12.8704 10.078 11.5895 8.46094 11.337V11.0434C8.46094 10.7198 8.19859 10.4574 7.875 10.4574C7.55141 10.4574 7.28906 10.7198 7.28906 11.0434V11.337C5.67195 11.5895 4.39105 12.8704 4.13848 14.4875H3.96875C3.64516 14.4875 3.38281 14.7499 3.38281 15.0735C3.38281 15.3971 3.64516 15.6594 3.96875 15.6594ZM7.875 12.4634C9.11281 12.4634 10.1521 13.3296 10.4188 14.4875H5.33121C5.59789 13.3296 6.63723 12.4634 7.875 12.4634Z" fill="#8D99AE"/>
<path d="M4.19598 17.2424C3.87239 17.2424 3.61005 17.5047 3.61005 17.8283C3.61005 18.1519 3.87239 18.4143 4.19598 18.4143H7.00848C7.33208 18.4143 7.59442 18.1519 7.59442 17.8283C7.59442 17.5047 7.33208 17.2424 7.00848 17.2424H4.19598Z" fill="#8D99AE"/>
<path d="M11.6348 19.5861H4.11523C3.79164 19.5861 3.5293 19.8485 3.5293 20.1721C3.5293 20.4957 3.79164 20.758 4.11523 20.758H11.6348C11.9584 20.758 12.2207 20.4957 12.2207 20.1721C12.2207 19.8485 11.9584 19.5861 11.6348 19.5861Z" fill="#8D99AE"/>
</g>
<defs>
<clipPath id="clip0_435_528">
<rect width="15" height="20" fill="white" transform="translate(0.375 4)"/>
</clipPath>
</defs>
</svg>
