<svg width="20" height="28" viewBox="0 0 20 28" fill="none" xmlns="http://www.w3.org/2000/svg">
<g clip-path="url(#clip0_803_247)">
<path d="M5.92651 9.79993V8.74993C5.92651 7.63602 6.36901 6.56773 7.15666 5.78008C7.94432 4.99243 9.0126 4.54993 10.1265 4.54993C11.2404 4.54993 12.3087 4.99243 13.0964 5.78008C13.884 6.56773 14.3265 7.63602 14.3265 8.74993V9.79993M13.2765 16.0999V13.9999M6.97651 16.0999V13.9999" stroke="#0CB3E0" stroke-width="1.575" stroke-linecap="round"/>
<path d="M1.72607 13.9999C1.72607 12.0196 1.72607 11.0305 2.34137 10.4152C2.95667 9.79993 3.94577 9.79993 5.92607 9.79993H14.3261C16.3064 9.79993 17.2955 9.79993 17.9108 10.4152C18.5261 11.0305 18.5261 12.0196 18.5261 13.9999V15.0499C18.5261 19.0095 18.5261 20.9898 17.2955 22.2193C16.0659 23.4499 14.0856 23.4499 10.1261 23.4499C6.16652 23.4499 4.18622 23.4499 2.95667 22.2193C1.72607 20.9898 1.72607 19.0095 1.72607 15.0499V13.9999Z" stroke="#0CB3E0" stroke-width="1.575"/>
</g>
<defs>
<clipPath id="clip0_803_247">
<rect width="18.9" height="21" fill="white" transform="translate(0.675049 3.5)"/>
</clipPath>
</defs>
</svg>
