<svg width="20" height="28" viewBox="0 0 20 28" fill="none" xmlns="http://www.w3.org/2000/svg">
<g clip-path="url(#clip0_435_553)">
<path d="M5.92638 9.79993V8.74993C5.92638 7.63602 6.36887 6.56773 7.15653 5.78008C7.94418 4.99243 9.01247 4.54993 10.1264 4.54993C11.2403 4.54993 12.3086 4.99243 13.0962 5.78008C13.8839 6.56773 14.3264 7.63602 14.3264 8.74993V9.79993M13.2764 16.0999V13.9999M6.97638 16.0999V13.9999" stroke="#8D99AE" stroke-width="1.575" stroke-linecap="round"/>
<path d="M1.72598 13.9999C1.72598 12.0196 1.72598 11.0305 2.34128 10.4152C2.95658 9.79993 3.94568 9.79993 5.92598 9.79993H14.326C16.3063 9.79993 17.2954 9.79993 17.9107 10.4152C18.526 11.0305 18.526 12.0196 18.526 13.9999V15.0499C18.526 19.0095 18.526 20.9898 17.2954 22.2193C16.0658 23.4499 14.0855 23.4499 10.126 23.4499C6.16643 23.4499 4.18613 23.4499 2.95658 22.2193C1.72598 20.9898 1.72598 19.0095 1.72598 15.0499V13.9999Z" stroke="#8D99AE" stroke-width="1.575"/>
</g>
<defs>
<clipPath id="clip0_435_553">
<rect width="18.9" height="21" fill="white" transform="translate(0.675003 3.5)"/>
</clipPath>
</defs>
</svg>
