<svg width="76" height="76" viewBox="0 0 76 76" fill="none" xmlns="http://www.w3.org/2000/svg">
<path fill-rule="evenodd" clip-rule="evenodd" d="M75.4998 38C75.4998 58.7112 58.711 75.5 37.9998 75.5C17.2885 75.5 0.499756 58.7112 0.499756 38C0.499756 17.2887 17.2885 0.499969 37.9998 0.499969C58.711 0.499969 75.4998 17.2887 75.4998 38ZM49.2498 26.75C49.2498 29.7337 48.0645 32.5951 45.9547 34.7049C43.8449 36.8147 40.9834 38 37.9998 38C35.0161 38 32.1546 36.8147 30.0448 34.7049C27.935 32.5951 26.7498 29.7337 26.7498 26.75C26.7498 23.7663 27.935 20.9048 30.0448 18.795C32.1546 16.6852 35.0161 15.5 37.9998 15.5C40.9834 15.5 43.8449 16.6852 45.9547 18.795C48.0645 20.9048 49.2498 23.7663 49.2498 26.75ZM37.9998 69.875C44.4358 69.8853 50.7227 67.9379 56.026 64.2912C58.291 62.735 59.2585 59.7725 57.9385 57.3612C55.2123 52.3625 49.5873 49.25 37.9998 49.25C26.4123 49.25 20.7873 52.3625 18.0573 57.3612C16.741 59.7725 17.7085 62.735 19.9735 64.2912C25.2768 67.9379 31.5637 69.8853 37.9998 69.875Z" fill="#8D99AE"/>
</svg>
