<svg width="28" height="17" viewBox="0 0 28 17" fill="none" xmlns="http://www.w3.org/2000/svg">
<g clip-path="url(#clip0_493_419)">
<path d="M26.4897 11.625H1.17725C0.919434 11.625 0.708496 11.8359 0.708496 12.0938V13.9688C0.708496 14.2266 0.919434 14.4375 1.17725 14.4375H3.98975L5.20381 16.0547C5.321 16.2141 5.56475 16.3125 5.83193 16.3125H21.8397C22.1069 16.3125 22.3507 16.2141 22.4679 16.0547L23.6819 14.4375H26.4944C26.7522 14.4375 26.9632 14.2266 26.9632 13.9688V12.0938C26.9632 11.8359 26.7522 11.625 26.4944 11.625H26.4897Z" fill="#0CB3E0"/>
<path d="M18.9897 0.84375H8.67725L5.25537 10.6875H15.5679L18.9897 0.84375ZM14.8554 4.97344L11.021 7.78594C10.9413 7.84219 10.8429 7.875 10.7444 7.875C10.7163 7.875 10.6835 7.87031 10.6554 7.86562C10.5288 7.84219 10.4163 7.76719 10.346 7.65938L9.45537 6.25313C9.31475 6.03281 9.38037 5.74219 9.596 5.60625C9.81631 5.46562 10.1069 5.53125 10.2429 5.74687L10.871 6.73125L14.3022 4.21406C14.5132 4.06406 14.8038 4.10625 14.9585 4.31719C15.1085 4.52344 15.0663 4.81875 14.8554 4.97344Z" fill="#0CB3E0"/>
<path d="M22.4115 10.6875L19.4865 2.26874L16.5615 10.6875H22.4115Z" fill="#0CB3E0"/>
</g>
<defs>
<clipPath id="clip0_493_419">
<rect width="27" height="16" fill="white" transform="translate(0.5 0.5)"/>
</clipPath>
</defs>
</svg>
