<svg width="28" height="29" viewBox="0 0 28 29" fill="none" xmlns="http://www.w3.org/2000/svg">
<path d="M4.68003 5.50931C4.49604 5.32592 4.49604 5.02943 4.68003 4.84609C4.86126 4.66322 5.1578 4.66322 5.34185 4.84609L6.87138 6.3765C7.05536 6.55931 7.05536 6.85644 6.87138 7.0392C6.78073 7.13125 6.65991 7.17695 6.54185 7.17695C6.42097 7.17695 6.3002 7.13125 6.20956 7.0392L4.68003 5.50931ZM3.31257 14.0312H1.1487C0.890596 14.0312 0.681885 14.2411 0.681885 14.5C0.681885 14.7589 0.890596 14.9687 1.1487 14.9687H3.31257C3.57343 14.9687 3.78214 14.7589 3.78214 14.5C3.78214 14.2411 3.57343 14.0312 3.31257 14.0312ZM6.20956 21.9607L4.68003 23.4906C4.49604 23.674 4.49604 23.9705 4.68003 24.1538C4.77067 24.2454 4.89144 24.291 5.00956 24.291C5.13038 24.291 5.2512 24.2453 5.34185 24.1538L6.87138 22.6234C7.05536 22.4406 7.05536 22.1435 6.87138 21.9607C6.69009 21.7779 6.39349 21.7779 6.20956 21.9607ZM14.3321 3.94896C14.593 3.94896 14.8017 3.73926 14.8017 3.48021V1.31635C14.8017 1.05742 14.593 0.847595 14.3321 0.847595C14.074 0.847595 13.8653 1.05742 13.8653 1.31635V3.48021C13.8653 3.73926 14.074 3.94896 14.3321 3.94896ZM23.3223 4.84609L21.7929 6.3765C21.6116 6.55931 21.6116 6.85644 21.7929 7.0392C21.8862 7.1306 22.0043 7.17695 22.1251 7.17695C22.246 7.17695 22.364 7.1306 22.4574 7.0392L23.9869 5.50931C24.1709 5.32592 24.1709 5.02943 23.9869 4.84609C23.8029 4.66322 23.5064 4.66322 23.3223 4.84609ZM27.5155 14.0312H25.3517C25.0935 14.0312 24.8848 14.2411 24.8848 14.5C24.8848 14.7589 25.0935 14.9687 25.3517 14.9687H27.5155C27.7763 14.9687 27.985 14.7589 27.985 14.5C27.985 14.2411 27.7763 14.0312 27.5155 14.0312ZM22.4574 21.9607C22.2734 21.7773 21.9768 21.7773 21.7929 21.9607C21.6116 22.1435 21.6116 22.4406 21.7929 22.6234L23.3223 24.1538C23.4157 24.2454 23.5338 24.291 23.6546 24.291C23.7755 24.291 23.8935 24.2453 23.9869 24.1538C24.1709 23.9705 24.1709 23.674 23.9869 23.4906L22.4574 21.9607ZM14.3321 25.051C14.074 25.051 13.8653 25.2607 13.8653 25.5198V27.6836C13.8653 27.9425 14.074 28.1523 14.3321 28.1523C14.593 28.1523 14.8017 27.9425 14.8017 27.6836V25.5198C14.8016 25.2607 14.593 25.051 14.3321 25.051ZM23.0121 13.8877C23.358 13.4277 23.4487 12.8734 23.2702 12.3273C23.0944 11.7813 22.6935 11.3869 22.1443 11.2169L18.4016 10.0603C18.2258 10.0064 18.0995 9.91492 17.9951 9.76433L15.738 6.56166C15.4057 6.09174 14.9087 5.83334 14.3321 5.83334C13.7581 5.83334 13.2584 6.09174 12.9289 6.56166L10.6718 9.76433C10.5647 9.91492 10.441 10.0058 10.2653 10.0603L6.52257 11.2169C5.97337 11.3869 5.57247 11.7812 5.39394 12.3273C5.21821 12.874 5.30886 13.4283 5.65204 13.8877L8.00259 17.0236C8.11245 17.1713 8.1619 17.3189 8.15634 17.5029L8.10144 21.4205C8.09317 21.9947 8.34308 22.4974 8.80989 22.8349C9.11194 23.0552 9.45243 23.1678 9.80394 23.1678C9.99337 23.1678 10.1829 23.1355 10.3724 23.0711L14.0821 21.8066C14.2551 21.7468 14.4116 21.7468 14.5846 21.8066L18.2943 23.0711C18.8353 23.2562 19.3927 23.1725 19.8568 22.835C20.3209 22.4975 20.5735 21.9948 20.5653 21.4206L20.5077 17.503C20.5049 17.319 20.5543 17.1713 20.6642 17.0236L23.0121 13.8877Z" fill="#0CB3E0"/>
</svg>
