<svg width="22" height="22" viewBox="0 0 22 22" fill="none" xmlns="http://www.w3.org/2000/svg">
<mask id="mask0_18_97" style="mask-type:luminance" maskUnits="userSpaceOnUse" x="0" y="0" width="23" height="23">
<path d="M0.00286865 0.00097847H22.0029V22.001H0.00286865V0.00097847Z" fill="white"/>
</mask>
<g mask="url(#mask0_18_97)">
<path d="M11.0023 0.64551C11.7645 0.64551 12.383 1.26417 12.383 2.02627C12.383 2.78828 11.7645 3.40698 11.0023 3.40698C10.2405 3.40698 9.62158 2.78828 9.62158 2.02627C9.62158 1.26417 10.2405 0.64551 11.0023 0.64551Z" stroke="#1B202A" stroke-width="1.28906" stroke-miterlimit="10" stroke-linecap="round" stroke-linejoin="round"/>
<path d="M19.9772 12.3816H2.02777C2.02777 7.42828 6.04947 3.40684 11.0025 3.40684C15.9559 3.40684 19.9772 7.42828 19.9772 12.3816Z" stroke="#1B202A" stroke-width="1.28906" stroke-miterlimit="10" stroke-linecap="round" stroke-linejoin="round"/>
<path d="M0.6474 12.3821H21.3583" stroke="#1B202A" stroke-width="1.28906" stroke-miterlimit="10" stroke-linecap="round" stroke-linejoin="round"/>
<path d="M0.6474 18.5952L3.40887 15.8337V15.8331C3.40887 14.9177 3.77269 14.0399 4.41988 13.3927C5.06712 12.7455 5.94493 12.3819 6.85999 12.3819H8.93177C9.298 12.3819 9.6494 12.5274 9.90828 12.7863C10.1672 13.0453 10.3125 13.3965 10.3125 13.7627C10.3125 14.1288 10.1672 14.4801 9.90828 14.739C9.6494 14.9979 9.298 15.1434 8.93177 15.1434H6.86068H11.6932C11.6932 15.1434 13.0543 14.0546 14.0671 13.2444C14.765 12.6861 15.6321 12.3819 16.5258 12.3819H16.5261C16.9376 12.3819 17.3041 12.6417 17.4401 13.0299C17.5762 13.4181 17.4526 13.8499 17.1312 14.1068C15.1057 15.7273 12.3836 17.9049 12.3836 17.9049L6.1703 18.5952L3.40887 21.3567L0.6474 18.5952Z" stroke="#1B202A" stroke-width="1.28906" stroke-miterlimit="10" stroke-linecap="round" stroke-linejoin="round"/>
</g>
</svg>
